<?xml version="1.0" encoding="UTF-8"?>
<svg id="_图层_2" data-name="图层 2" xmlns="http://www.w3.org/2000/svg" viewBox="0 0 167.5130615 243.0499887">
  <defs>
    <style>
      .cls-1 {
        fill: #111;
      }

      .cls-2 {
        fill: #fff;
        stroke: #000;
        stroke-miterlimit: 3.998513;
      }
    </style>
  </defs>
  <g id="_图层_1-2" data-name=" 图层 1">
    <g id="_6_club" data-name=" 6 club">
      <g id="base-6">
        <path class="cls-2" d="m.500061,235.6825418c0,3.778595,3.0888672,6.8674469,6.8674316,6.8674469h152.788147c3.7686157,0,6.8574219-3.0888519,6.8574219-6.8674469V7.3674564c0-3.7785935-3.0888672-6.8674564-6.8574219-6.8674564H7.3674316C3.5888672.5.5,3.5888629.5,7.3674564v228.3150854h.000061Z"/>
      </g>
      <g id="n_6" data-name="n 6">
        <path class="cls-1" d="m6.4641113,23.9449625c0-5.2226562,1.1582031-9.4990234,3.4755859-12.8276367,2.3164062-3.3291016,5.1123047-4.9936523,8.3867188-4.9936523.5664062,0,1.0888672.0410156,1.5673828.1220703.4785156.081543.9765625.2036133,1.4921875.3662109v2.5742188c-.8183594-.0888672-1.3916016-.144043-1.71875-.1665039-.3271484-.0219727-.6669922-.0332031-1.0195312-.0332031-2.3925781,0-4.4082031,1.2021484-6.0449219,3.6064453s-2.4560547,5.3081055-2.4560547,8.7109375l.1894531.0888672c.7177734-.6508789,1.5205078-1.1835938,2.4082031-1.5981445.8876953-.4140625,1.8417969-.621582,2.8623047-.621582,2.2910156,0,4.1083984.7695312,5.4492188,2.3081055,1.3408203,1.5390625,2.0117188,3.4331055,2.0117188,5.6816406v.6435547c0,2.9150391-.7646484,5.1972656-2.2949219,6.8466797-1.5302734,1.6499023-3.5234375,2.4746094-5.9785156,2.4746094-2.6699219,0-4.7255859-1.0131836-6.1679688-3.0405273-1.4414062-2.0268555-2.1621094-4.875-2.1621094-8.5444336v-1.5976562Zm13.0146484,4.0834961c0-1.8344727-.4501953-3.2919922-1.3505859-4.3720703s-2.1132812-1.6201172-3.6367188-1.6201172c-.8183594,0-1.5898438.1108398-2.3134766.3330078-.7246094.2216797-1.4013672.487793-2.03125.7988281v1.9086914c0,2.9145508.4726562,5.1748047,1.4169922,6.7797852.9443359,1.6054688,2.1279297,2.4082031,3.5517578,2.4082031,1.3466797,0,2.4111328-.5327148,3.1923828-1.5981445.7802734-1.0654297,1.1708984-2.4926758,1.1708984-4.2832031v-.3549805Z"/>
      </g>
      <g id="n_6-2" data-name="n 6-2">
        <path class="cls-1" d="m162.0480957,218.1080484c0,5.2226562-1.1582031,9.4990234-3.4755859,12.8276367-2.3164062,3.3291016-5.1123047,4.9936523-8.3867188,4.9936523-.5664062,0-1.0888672-.0410156-1.5673828-.1220703-.4785156-.081543-.9765625-.2036133-1.4921875-.3662109v-2.5742188c.8183594.0888672,1.3916016.144043,1.71875.1665039.3271484.0219727.6669922.0332031,1.0195312.0332031,2.3925781,0,4.4082031-1.2021484,6.0449219-3.6064453s2.4560547-5.3081055,2.4560547-8.7109375l-.1894531-.0888672c-.7177734.6508789-1.5205078,1.1835938-2.4082031,1.5981445-.8876953.4140625-1.8417969.621582-2.8623047.621582-2.2910156,0-4.1083984-.7695312-5.4492188-2.3081055-1.3408203-1.5390625-2.0117188-3.4331055-2.0117188-5.6816406v-.6435547c0-2.9150391.7646484-5.1972656,2.2949219-6.8466797,1.5302734-1.6499023,3.5234375-2.4746094,5.9785156-2.4746094,2.6699219,0,4.7255859,1.0131836,6.1679688,3.0405273,1.4414062,2.0268555,2.1621094,4.875,2.1621094,8.5444336v1.5976562Zm-13.0146484-4.0834961c0,1.8344727.4501953,3.2919922,1.3505859,4.3720703s2.1132812,1.6201172,3.6367188,1.6201172c.8183594,0,1.5898438-.1108398,2.3134766-.3330078.7246094-.2216797,1.4013672-.487793,2.03125-.7988281v-1.9086914c0-2.9145508-.4726562-5.1748047-1.4169922-6.7797852-.9443359-1.6054688-2.1279297-2.4082031-3.5517578-2.4082031-1.3466797,0-2.4111328.5327148-3.1923828,1.5981445-.7802734,1.0654297-1.1708984,2.4926758-1.1708984,4.2832031v.3549805Z"/>
      </g>
      <g id="club-26">
        <path d="m10.7962646,45.9760866c0,1.8093262,1.5094604,3.2787819,3.3787231,3.2787819s3.3787231-1.4694519,3.3787231-3.2787819-1.5094604-3.2787819-3.3787231-3.2787819-3.3787231,1.4694519-3.3787231,3.2787819Z"/>
        <path d="m6.4378662,52.1837778c0,1.8093262,1.5094604,3.2787819,3.3787231,3.2787819s3.3787231-1.4694519,3.3787231-3.2787819-1.5094604-3.2787819-3.3787231-3.2787819-3.3787231,1.4694519-3.3787231,3.2787819Z"/>
        <path d="m15.0946655,52.2037706c0,.6597557.1999512,1.2795258.5498047,1.7993317.5997925.8896675,1.6494141,1.4794502,2.8289185,1.4794502,1.8693237,0,3.3787231-1.4694519,3.3787231-3.2787819s-1.5094604-3.2787819-3.3787231-3.2787819-3.3787231,1.4694519-3.3787231,3.2787819Z"/>
        <path d="m10.2064819,58.5714045c1.6693726,0,2.5490723-1.3594933,3.0089111-2.7189903.4598389-1.3594933.4998169-2.7189903.4998169-2.7189903h.8596802s.1599121,5.4279823,3.4987183,5.4379768h-7.8670654l-.000061.0000038Z"/>
        <path d="m16.4641113,48.38519c-1.899292,1.899292-1.899292,4.7482338-1.899292,4.7482338l-.8496704.0099945s0-2.9089203-1.8493042-4.7582321"/>
        <path d="m16.0842896,54.4829226c-1.899292-1.899292-4.74823-1.899292-4.74823-1.899292v-.8496857s2.9089355,0,4.7582397-1.8493118"/>
        <path d="m12.2756958,54.4929209c1.899292-1.899292,4.74823-1.899292,4.74823-1.899292v-.8496857s-2.9089355,0-4.7582397-1.8493118"/>
      </g>
      <g id="club-27">
        <path d="m157.7165527,196.0772715c0-1.8093262-1.5094604-3.2787781-3.3787231-3.2787781s-3.3787231,1.4694519-3.3787231,3.2787781,1.5094604,3.2787781,3.3787231,3.2787781,3.3787231-1.4694519,3.3787231-3.2787781Z"/>
        <path d="m162.0749512,189.8695841c0-1.8093262-1.5094604-3.2787781-3.3787231-3.2787781s-3.3787231,1.4694519-3.3787231,3.2787781,1.5094604,3.2787781,3.3787231,3.2787781,3.3787231-1.4694519,3.3787231-3.2787781Z"/>
        <path d="m153.4181519,189.8495951c0-.6597595-.1999512-1.2795258-.5498047-1.7993317-.5997925-.8896637-1.6494141-1.4794464-2.8289185-1.4794464-1.8693237,0-3.3787231,1.4694519-3.3787231,3.2787781s1.5094604,3.2787781,3.3787231,3.2787781,3.3787231-1.4694519,3.3787231-3.2787781Z"/>
        <path d="m158.3063354,183.4819498c-1.6693726,0-2.5490723,1.3594971-3.0089111,2.7189941s-.4998169,2.7189941-.4998169,2.7189941h-.8596802s-.1599121-5.4279785-3.4987183-5.437973h7.8670654l.000061-.0000153Z"/>
        <path d="m152.048645,193.6681681c1.899292-1.899292,1.899292-4.74823,1.899292-4.74823l.8496704-.0099945s0,2.9089203,1.8493042,4.7582245"/>
        <path d="m152.4285278,187.5704355c1.899292,1.899292,4.74823,1.899292,4.74823,1.899292v.8496857s-2.9089355,0-4.7582397,1.8493195"/>
        <path d="m156.2371216,187.560441c-1.899292,1.899292-4.74823,1.899292-4.74823,1.899292v.8496857s2.9089355,0,4.7582397,1.8493195"/>
      </g>
      <g id="club-28">
        <path d="m36.3053589,26.0664892c0,4.3423862,3.6226807,7.8690739,8.1090088,7.8690739s8.1090088-3.5266876,8.1090088-7.8690739-3.6226807-7.8690739-8.1090088-7.8690739-8.1090088,3.5266876-8.1090088,7.8690739Z"/>
        <path d="m25.8452148,40.9649477c0,4.3423843,3.6226807,7.8690758,8.1090088,7.8690758s8.1090088-3.5266876,8.1090088-7.869072-3.6226807-7.869072-8.1090088-7.869072-8.1090088,3.5266876-8.1090088,7.8690681Z"/>
        <path d="m46.621521,41.012929c0,1.5834122.4797974,3.070858,1.319519,4.3183937,1.4394531,2.1352043,3.9585571,3.5506783,6.7894897,3.5506783,4.4863281,0,8.1090088-3.5266876,8.1090088-7.8690758s-3.6226807-7.869072-8.1090088-7.869072-8.1090088,3.5266876-8.1090088,7.8690758Z"/>
        <path d="m34.8898926,56.2952471c4.0065308,0,6.1177368-3.2627869,7.2213135-6.5255737s1.1995239-6.5255737,1.1995239-6.5255737h2.0632324s.3838501,13.0271568,8.3968506,13.0511475h-18.8809814.000061Z"/>
        <path d="m49.9083252,31.8483362c-4.5582886,4.5583038-4.5582886,11.3957634-4.5582886,11.3957634l-2.0392456.0239906s0-6.9814034-4.4383545-11.419754"/>
        <path d="m48.9966431,46.4828959c-4.5582886-4.5583038-11.395752-4.5583038-11.395752-4.5583038v-2.0392418s6.9813843,0,11.4197388-4.4383507"/>
        <path d="m39.8560181,46.5068865c4.5582886-4.5583038,11.395752-4.5583038,11.395752-4.5583038v-2.0392418s-6.9813843,0-11.4197388-4.4383507"/>
      </g>
      <g id="club-29">
        <path d="m36.3053589,102.979249c0,4.3423843,3.6226807,7.869072,8.1090088,7.869072s8.1090088-3.5266876,8.1090088-7.869072-3.6226807-7.869072-8.1090088-7.869072-8.1090088,3.5266876-8.1090088,7.869072Z"/>
        <path d="m25.8452148,117.8777094c0,4.3423843,3.6226807,7.869072,8.1090088,7.869072s8.1090088-3.5266876,8.1090088-7.869072-3.6226807-7.869072-8.1090088-7.869072-8.1090088,3.5266876-8.1090088,7.869072Z"/>
        <path d="m46.621521,117.9256907c0,1.5834122.4797974,3.0708542,1.319519,4.3183899,1.4394531,2.1352081,3.9585571,3.5506744,6.7894897,3.5506744,4.4863281,0,8.1090088-3.5266876,8.1090088-7.869072s-3.6226807-7.869072-8.1090088-7.869072-8.1090088,3.5266876-8.1090088,7.8690796Z"/>
        <path d="m34.8898926,133.2080088c4.0065308,0,6.1177368-3.2627869,7.2213135-6.5255737s1.1995239-6.5255737,1.1995239-6.5255737h2.0632324s.3838501,13.0271606,8.3968506,13.0511475h-18.8809814.000061Z"/>
        <path d="m49.9083252,108.7611017c-4.5582886,4.5583038-4.5582886,11.3957596-4.5582886,11.3957596l-2.0392456.0239944s0-6.9814072-4.4383545-11.419754"/>
        <path d="m48.9966431,123.3956614c-4.5582886-4.5583038-11.395752-4.5583038-11.395752-4.5583038v-2.0392456s6.9813843,0,11.4197388-4.4383469"/>
        <path d="m39.8560181,123.4196482c4.5582886-4.5583038,11.395752-4.5583038,11.395752-4.5583038v-2.0392456s-6.9813843,0-11.4197388-4.4383469"/>
      </g>
      <g id="club-30">
        <path d="m52.3793945,211.8378153c0-4.342392-3.6226807-7.8690796-8.1090088-7.8690796s-8.1090088,3.5266876-8.1090088,7.8690796,3.6226807,7.8690796,8.1090088,7.8690796,8.1090088-3.5266876,8.1090088-7.8690796Z"/>
        <path d="m62.8395386,196.9393473c0-4.342392-3.6226807-7.8690796-8.1090088-7.8690796s-8.1090088,3.5266876-8.1090088,7.8690796,3.6226807,7.8690796,8.1090088,7.8690796,8.1090088-3.5266876,8.1090088-7.8690796Z"/>
        <path d="m42.0632324,196.8913736c0-1.5834045-.4797974-3.0708618-1.319519-4.3183899-1.4394531-2.1352081-3.9585571-3.5506744-6.7894897-3.5506744-4.4863281,0-8.1090088,3.5266876-8.1090088,7.8690796s3.6226807,7.8690796,8.1090088,7.8690796,8.1090088-3.5266876,8.1090088-7.8690796v-.0000153Z"/>
        <path d="m53.7948608,181.6090555c-4.0065308,0-6.1177368,3.2627869-7.2213135,6.5255737s-1.1995239,6.5255737-1.1995239,6.5255737h-2.0632324s-.3838501-13.0271606-8.3968506-13.0511475h18.8809814-.000061Z"/>
        <path d="m38.7764282,206.0559549c4.5582886-4.5583038,4.5582886-11.3957672,4.5582886-11.3957672l2.0392456-.0239868s0,6.9813995,4.4383545,11.419754"/>
        <path d="m39.6881104,191.4214029c4.5582886,4.5583038,11.395752,4.5583038,11.395752,4.5583038v2.0392456s-6.9813843,0-11.4197388,4.4383545"/>
        <path d="m48.8287354,191.3974161c-4.5582886,4.5583038-11.395752,4.5583038-11.395752,4.5583038v2.0392456s6.9813843,0,11.4197388,4.4383545"/>
      </g>
      <g id="club-31">
        <path d="m116.1333008,26.0664892c0,4.3423862,3.6226807,7.8690739,8.1090088,7.8690739s8.1090088-3.5266876,8.1090088-7.8690739-3.6226807-7.8690739-8.1090088-7.8690739-8.1090088,3.5266876-8.1090088,7.8690739Z"/>
        <path d="m105.6732178,40.9649477c0,4.3423843,3.6226807,7.8690758,8.1090088,7.8690758s8.1090088-3.5266876,8.1090088-7.869072-3.6226807-7.869072-8.1090088-7.869072-8.1090088,3.5266876-8.1090088,7.8690681Z"/>
        <path d="m126.4494629,41.012929c0,1.5834122.4797974,3.070858,1.319519,4.3183937,1.4394531,2.1352043,3.9585571,3.5506783,6.7894897,3.5506783,4.4863281,0,8.1090088-3.5266876,8.1090088-7.8690758s-3.6226807-7.869072-8.1090088-7.869072-8.1090088,3.5266876-8.1090088,7.8690758Z"/>
        <path d="m114.7178345,56.2952471c4.0065308,0,6.1177368-3.2627869,7.2213135-6.5255737s1.1995239-6.5255737,1.1995239-6.5255737h2.0632324s.3838501,13.0271568,8.3968506,13.0511475h-18.8809814.000061Z"/>
        <path d="m129.7362671,31.8483362c-4.5582886,4.5583038-4.5582886,11.3957634-4.5582886,11.3957634l-2.0392456.0239906s0-6.9814034-4.4383545-11.419754"/>
        <path d="m128.824585,46.4828959c-4.5582886-4.5583038-11.395752-4.5583038-11.395752-4.5583038v-2.0392418s6.9813843,0,11.4197388-4.4383507"/>
        <path d="m119.68396,46.5068865c4.5582886-4.5583038,11.395752-4.5583038,11.395752-4.5583038v-2.0392418s-6.9813843,0-11.4197388-4.4383507"/>
      </g>
      <g id="club-32">
        <path d="m116.1333008,102.979249c0,4.3423843,3.6226807,7.869072,8.1090088,7.869072s8.1090088-3.5266876,8.1090088-7.869072-3.6226807-7.869072-8.1090088-7.869072-8.1090088,3.5266876-8.1090088,7.869072Z"/>
        <path d="m105.6732178,117.8777094c0,4.3423843,3.6226807,7.869072,8.1090088,7.869072s8.1090088-3.5266876,8.1090088-7.869072-3.6226807-7.869072-8.1090088-7.869072-8.1090088,3.5266876-8.1090088,7.869072Z"/>
        <path d="m126.4494629,117.9256907c0,1.5834122.4797974,3.0708542,1.319519,4.3183899,1.4394531,2.1352081,3.9585571,3.5506744,6.7894897,3.5506744,4.4863281,0,8.1090088-3.5266876,8.1090088-7.869072s-3.6226807-7.869072-8.1090088-7.869072-8.1090088,3.5266876-8.1090088,7.8690796Z"/>
        <path d="m114.7178345,133.2080088c4.0065308,0,6.1177368-3.2627869,7.2213135-6.5255737s1.1995239-6.5255737,1.1995239-6.5255737h2.0632324s.3838501,13.0271606,8.3968506,13.0511475h-18.8809814.000061Z"/>
        <path d="m129.7362671,108.7611017c-4.5582886,4.5583038-4.5582886,11.3957596-4.5582886,11.3957596l-2.0392456.0239944s0-6.9814072-4.4383545-11.419754"/>
        <path d="m128.824585,123.3956614c-4.5582886-4.5583038-11.395752-4.5583038-11.395752-4.5583038v-2.0392456s6.9813843,0,11.4197388-4.4383469"/>
        <path d="m119.68396,123.4196482c4.5582886-4.5583038,11.395752-4.5583038,11.395752-4.5583038v-2.0392456s-6.9813843,0-11.4197388-4.4383469"/>
      </g>
      <g id="club-33">
        <path d="m132.2072754,211.8378153c0-4.342392-3.6226807-7.8690796-8.1090088-7.8690796s-8.1090088,3.5266876-8.1090088,7.8690796,3.6226807,7.8690796,8.1090088,7.8690796,8.1090088-3.5266876,8.1090088-7.8690796Z"/>
        <path d="m142.6674194,196.9393473c0-4.342392-3.6226807-7.8690796-8.1090088-7.8690796s-8.1090088,3.5266876-8.1090088,7.8690796,3.6226807,7.8690796,8.1090088,7.8690796,8.1090088-3.5266876,8.1090088-7.8690796Z"/>
        <path d="m121.8911133,196.8913736c0-1.5834045-.4797974-3.0708618-1.319519-4.3183899-1.4394531-2.1352081-3.9585571-3.5506744-6.7894897-3.5506744-4.4863281,0-8.1090088,3.5266876-8.1090088,7.8690796s3.6226807,7.8690796,8.1090088,7.8690796,8.1090088-3.5266876,8.1090088-7.8690796v-.0000153Z"/>
        <path d="m133.6227417,181.6090555c-4.0065308,0-6.1177368,3.2627869-7.2213135,6.5255737s-1.1995239,6.5255737-1.1995239,6.5255737h-2.0632324s-.3838501-13.0271606-8.3968506-13.0511475h18.8809814-.000061Z"/>
        <path d="m118.6043701,206.0559549c4.5582886-4.5583038,4.5582886-11.3957672,4.5582886-11.3957672l2.0392456-.0239868s0,6.9813995,4.4383545,11.419754"/>
        <path d="m119.5159912,191.4214029c4.5582886,4.5583038,11.395752,4.5583038,11.395752,4.5583038v2.0392456s-6.9813843,0-11.4197388,4.4383545"/>
        <path d="m128.6566162,191.3974161c-4.5582886,4.5583038-11.395752,4.5583038-11.395752,4.5583038v2.0392456s6.9813843,0,11.4197388,4.4383545"/>
      </g>
    </g>
  </g>
</svg>