<?xml version="1.0" encoding="UTF-8"?>
<svg id="_图层_2" data-name="图层 2" xmlns="http://www.w3.org/2000/svg" viewBox="0 0 167.5130615 243.0499887">
  <defs>
    <style>
      .cls-1 {
        fill: #111;
      }

      .cls-2 {
        fill: #fff;
        stroke: #000;
        stroke-miterlimit: 3.998513;
      }
    </style>
  </defs>
  <g id="_图层_1-2" data-name=" 图层 1">
    <g id="_7_club" data-name=" 7 club">
      <g id="base-7">
        <path class="cls-2" d="m.500061,235.6825418c0,3.778595,3.0888672,6.8674469,6.8674316,6.8674469h152.788147c3.7685547,0,6.8574219-3.0888519,6.8574219-6.8674469V7.3674564c0-3.7785935-3.0888672-6.8674564-6.8574219-6.8674564H7.3674316C3.5888672.5.5,3.5888629.5,7.3674564v228.3150854h.000061Z"/>
      </g>
      <g id="n_7" data-name="n 7">
        <path class="cls-1" d="m7.6154785,14.8897867l-2.1728516-.1772461V6.6119547h16.7744141v2.0639648l-9.7285156,27.9633789h-3.3808594l9.5957031-26.0327148-.1132812-.2216797h-9.9736328l-1.0009766,4.5048828Z"/>
      </g>
      <g id="n_7-2" data-name="n 7-2">
        <path class="cls-1" d="m160.8908691,227.1632242l2.1728516.1772461v8.1005859h-16.7744141v-2.0639648l9.7285156-27.9633789h3.3808594l-9.5957031,26.0327148.1132812.2216797h9.9736328l1.0009766-4.5048828Z"/>
      </g>
      <g id="club-34">
        <path d="m10.7962036,45.9760866c0,1.8093262,1.5094604,3.2787819,3.3787231,3.2787819s3.3787231-1.4694519,3.3787231-3.2787819-1.5094604-3.2787819-3.3787231-3.2787819-3.3787231,1.4694519-3.3787231,3.2787819Z"/>
        <path d="m6.4378052,52.1837778c0,1.8093262,1.5094604,3.2787819,3.3787231,3.2787819s3.3787231-1.4694519,3.3787231-3.2787819-1.5094604-3.2787819-3.3787231-3.2787819-3.3787231,1.4694519-3.3787231,3.2787819Z"/>
        <path d="m15.0946045,52.2037706c0,.6597557.1999512,1.2795258.5498047,1.7993317.5997925.8896675,1.6494141,1.4794502,2.8289185,1.4794502,1.8693237,0,3.3787231-1.4694519,3.3787231-3.2787819s-1.5093994-3.2787819-3.3787231-3.2787819-3.3787231,1.4694519-3.3787231,3.2787819Z"/>
        <path d="m10.2064209,58.5714045c1.6693726,0,2.5490723-1.3594933,3.0089111-2.7189903.4598389-1.3594933.4998169-2.7189903.4998169-2.7189903h.8596802s.1599121,5.4279823,3.4987183,5.4379768h-7.8670654l-.000061.0000038Z"/>
        <path d="m16.4641113,48.38519c-1.899292,1.899292-1.899292,4.7482338-1.899292,4.7482338l-.8496704.0099945s0-2.9089203-1.8493042-4.7582321"/>
        <path d="m16.0842285,54.4829226c-1.899292-1.899292-4.74823-1.899292-4.74823-1.899292v-.8496857s2.9089355,0,4.7582397-1.8493118"/>
        <path d="m12.2756348,54.4929209c1.899292-1.899292,4.74823-1.899292,4.74823-1.899292v-.8496857s-2.9089355,0-4.7582397-1.8493118"/>
      </g>
      <g id="club-35">
        <path d="m157.7115479,196.0772715c0-1.8093262-1.5093994-3.2787781-3.3787842-3.2787781s-3.3787842,1.4694519-3.3787842,3.2787781,1.5093994,3.2787781,3.3787842,3.2787781,3.3787842-1.4694519,3.3787842-3.2787781Z"/>
        <path d="m162.0699463,189.8695841c0-1.8093262-1.5093994-3.2787781-3.3787842-3.2787781s-3.3787842,1.4694519-3.3787842,3.2787781,1.5093994,3.2787781,3.3787842,3.2787781,3.3787842-1.4694519,3.3787842-3.2787781Z"/>
        <path d="m153.413208,189.8495951c0-.6597595-.1999512-1.2795258-.5498047-1.7993317-.5997314-.8896637-1.6494141-1.4794464-2.8289795-1.4794464-1.8692627,0-3.3787842,1.4694519-3.3787842,3.2787781s1.5093994,3.2787781,3.3787842,3.2787781,3.3787842-1.4694519,3.3787842-3.2787781Z"/>
        <path d="m158.3013916,183.4819498c-1.6694336,0-2.5490723,1.3594971-3.0089111,2.7189941s-.4997559,2.7189941-.4997559,2.7189941h-.8597412s-.1599121-5.4279785-3.4986572-5.437973h7.8670654v-.0000153Z"/>
        <path d="m152.0437012,193.6681681c1.899292-1.899292,1.899292-4.74823,1.899292-4.74823l.8497314-.0099945s0,2.9089203,1.8493652,4.7582245"/>
        <path d="m152.423584,187.5704355c1.899292,1.899292,4.748291,1.899292,4.748291,1.899292v.8496857s-2.9089355,0-4.7581787,1.8493195"/>
        <path d="m156.2321777,187.560441c-1.899292,1.899292-4.748291,1.899292-4.748291,1.899292v.8496857s2.9089355,0,4.7581787,1.8493195"/>
      </g>
      <g id="club-36">
        <path d="m36.305542,26.0664892c0,4.3423862,3.6226807,7.8690739,8.1090088,7.8690739s8.1090088-3.5266876,8.1090088-7.8690739-3.6226807-7.8690739-8.1090088-7.8690739-8.1090088,3.5266876-8.1090088,7.8690739Z"/>
        <path d="m25.845459,40.9649477c0,4.3423843,3.6226807,7.8690758,8.1090088,7.8690758s8.1090088-3.5266876,8.1090088-7.869072-3.6226807-7.869072-8.1090088-7.869072-8.1090088,3.5266876-8.1090088,7.8690681Z"/>
        <path d="m46.6217041,41.012929c0,1.5834122.4798584,3.070858,1.319458,4.3183937,1.4394531,2.1352043,3.9584961,3.5506783,6.7894287,3.5506783,4.4863281,0,8.1090088-3.5266876,8.1090088-7.8690758s-3.6226807-7.869072-8.1090088-7.869072-8.1090088,3.5266876-8.1090088,7.869072l.0001221.0000038Z"/>
        <path d="m34.8901367,56.2952471c4.0064697,0,6.1176758-3.2627869,7.2213135-6.5255737s1.199585-6.5255737,1.199585-6.5255737h2.0632324s.3839111,13.0271568,8.3968506,13.0511475h-18.8809814Z"/>
        <path d="m49.9084473,31.8483362c-4.5583496,4.5583038-4.5583496,11.3957634-4.5583496,11.3957634l-2.0391846.0239906s0-6.9814034-4.4383545-11.419754"/>
        <path d="m48.9968262,46.4828959c-4.5583496-4.5583038-11.395752-4.5583038-11.395752-4.5583038v-2.0392418s6.9814453,0,11.4197998-4.4383507"/>
        <path d="m39.8562012,46.5068865c4.5583496-4.5583038,11.395752-4.5583038,11.395752-4.5583038v-2.0392418s-6.9814453,0-11.4197998-4.4383507"/>
      </g>
      <g id="club-37">
        <path d="m36.305542,102.979249c0,4.3423843,3.6226807,7.869072,8.1090088,7.869072s8.1090088-3.5266876,8.1090088-7.869072-3.6226807-7.869072-8.1090088-7.869072-8.1090088,3.5266876-8.1090088,7.869072Z"/>
        <path d="m25.845459,117.8777094c0,4.3423843,3.6226807,7.869072,8.1090088,7.869072s8.1090088-3.5266876,8.1090088-7.869072-3.6226807-7.869072-8.1090088-7.869072-8.1090088,3.5266876-8.1090088,7.869072Z"/>
        <path d="m46.6217041,117.9256907c0,1.5834122.4798584,3.0708542,1.319458,4.3183899,1.4394531,2.1352081,3.9584961,3.5506744,6.7894287,3.5506744,4.4863281,0,8.1090088-3.5266876,8.1090088-7.869072s-3.6226807-7.869072-8.1090088-7.869072-8.1090088,3.5266876-8.1090088,7.869072l.0001221.0000076Z"/>
        <path d="m34.8901367,133.2080088c4.0064697,0,6.1176758-3.2627869,7.2213135-6.5255737s1.199585-6.5255737,1.199585-6.5255737h2.0632324s.3839111,13.0271606,8.3968506,13.0511475h-18.8809814Z"/>
        <path d="m49.9084473,108.7611017c-4.5583496,4.5583038-4.5583496,11.3957596-4.5583496,11.3957596l-2.0391846.0239944s0-6.9814072-4.4383545-11.419754"/>
        <path d="m48.9968262,123.3956614c-4.5583496-4.5583038-11.395752-4.5583038-11.395752-4.5583038v-2.0392456s6.9814453,0,11.4197998-4.4383469"/>
        <path d="m39.8562012,123.4196482c4.5583496-4.5583038,11.395752-4.5583038,11.395752-4.5583038v-2.0392456s-6.9814453,0-11.4197998-4.4383469"/>
      </g>
      <g id="club-38">
        <path d="m52.3796387,211.8378153c0-4.342392-3.6226807-7.8690796-8.1090088-7.8690796s-8.1090088,3.5266876-8.1090088,7.8690796,3.6226807,7.8690796,8.1090088,7.8690796,8.1090088-3.5266876,8.1090088-7.8690796Z"/>
        <path d="m62.8397217,196.9393473c0-4.342392-3.6226807-7.8690796-8.1090088-7.8690796s-8.1090088,3.5266876-8.1090088,7.8690796,3.6226807,7.8690796,8.1090088,7.8690796,8.1090088-3.5266876,8.1090088-7.8690796Z"/>
        <path d="m42.0634766,196.8913736c0-1.5834045-.4798584-3.0708618-1.319458-4.3183899-1.4394531-2.1352081-3.9584961-3.5506744-6.7894287-3.5506744-4.4863281,0-8.1090088,3.5266876-8.1090088,7.8690796s3.6226807,7.8690796,8.1090088,7.8690796,8.1090088-3.5266876,8.1090088-7.8690796l-.0001221-.0000153Z"/>
        <path d="m53.7950439,181.6090555c-4.0064697,0-6.1176758,3.2627869-7.2213135,6.5255737s-1.199585,6.5255737-1.199585,6.5255737h-2.0632324s-.3839111-13.0271606-8.3968506-13.0511475h18.8809814Z"/>
        <path d="m38.7766113,206.0559549c4.5583496-4.5583038,4.5583496-11.3957672,4.5583496-11.3957672l2.0391846-.0239868s0,6.9813995,4.4383545,11.419754"/>
        <path d="m39.6883545,191.4214029c4.5583496,4.5583038,11.395752,4.5583038,11.395752,4.5583038v2.0392456s-6.9814453,0-11.4197998,4.4383545"/>
        <path d="m48.8289795,191.3974161c-4.5583496,4.5583038-11.395752,4.5583038-11.395752,4.5583038v2.0392456s6.9814453,0,11.4197998,4.4383545"/>
      </g>
      <g id="club-39">
        <path d="m116.1334229,26.0664892c0,4.3423862,3.6226807,7.8690739,8.1090088,7.8690739s8.1090088-3.5266876,8.1090088-7.8690739-3.6226807-7.8690739-8.1090088-7.8690739-8.1090088,3.5266876-8.1090088,7.8690739Z"/>
        <path d="m105.6732178,40.9649477c0,4.3423843,3.6226807,7.8690758,8.1090088,7.8690758s8.1090088-3.5266876,8.1090088-7.869072-3.6226807-7.869072-8.1090088-7.869072-8.1090088,3.5266876-8.1090088,7.8690681Z"/>
        <path d="m126.449585,41.012929c0,1.5834122.4798584,3.070858,1.319458,4.3183937,1.4394531,2.1352043,3.9584961,3.5506783,6.7894287,3.5506783,4.4863281,0,8.1090088-3.5266876,8.1090088-7.8690758s-3.6226807-7.869072-8.1090088-7.869072-8.1090088,3.5266876-8.1090088,7.869072l.0001221.0000038Z"/>
        <path d="m114.7178955,56.2952471c4.0064697,0,6.1176758-3.2627869,7.2213135-6.5255737s1.199585-6.5255737,1.199585-6.5255737h2.0632324s.3839111,13.0271568,8.3968506,13.0511475h-18.8809814Z"/>
        <path d="m129.7363281,31.8483362c-4.5583496,4.5583038-4.5583496,11.3957634-4.5583496,11.3957634l-2.0391846.0239906s0-6.9814034-4.4383545-11.419754"/>
        <path d="m128.824707,46.4828959c-4.5583496-4.5583038-11.395752-4.5583038-11.395752-4.5583038v-2.0392418s6.9814453,0,11.4197998-4.4383507"/>
        <path d="m119.684082,46.5068865c4.5583496-4.5583038,11.395752-4.5583038,11.395752-4.5583038v-2.0392418s-6.9814453,0-11.4197998-4.4383507"/>
      </g>
      <g id="club-40">
        <path d="m116.1334229,102.979249c0,4.3423843,3.6226807,7.869072,8.1090088,7.869072s8.1090088-3.5266876,8.1090088-7.869072-3.6226807-7.869072-8.1090088-7.869072-8.1090088,3.5266876-8.1090088,7.869072Z"/>
        <path d="m105.6732178,117.8777094c0,4.3423843,3.6226807,7.869072,8.1090088,7.869072s8.1090088-3.5266876,8.1090088-7.869072-3.6226807-7.869072-8.1090088-7.869072-8.1090088,3.5266876-8.1090088,7.869072Z"/>
        <path d="m126.449585,117.9256907c0,1.5834122.4798584,3.0708542,1.319458,4.3183899,1.4394531,2.1352081,3.9584961,3.5506744,6.7894287,3.5506744,4.4863281,0,8.1090088-3.5266876,8.1090088-7.869072s-3.6226807-7.869072-8.1090088-7.869072-8.1090088,3.5266876-8.1090088,7.869072l.0001221.0000076Z"/>
        <path d="m114.7178955,133.2080088c4.0064697,0,6.1176758-3.2627869,7.2213135-6.5255737s1.199585-6.5255737,1.199585-6.5255737h2.0632324s.3839111,13.0271606,8.3968506,13.0511475h-18.8809814Z"/>
        <path d="m129.7363281,108.7611017c-4.5583496,4.5583038-4.5583496,11.3957596-4.5583496,11.3957596l-2.0391846.0239944s0-6.9814072-4.4383545-11.419754"/>
        <path d="m128.824707,123.3956614c-4.5583496-4.5583038-11.395752-4.5583038-11.395752-4.5583038v-2.0392456s6.9814453,0,11.4197998-4.4383469"/>
        <path d="m119.684082,123.4196482c4.5583496-4.5583038,11.395752-4.5583038,11.395752-4.5583038v-2.0392456s-6.9814453,0-11.4197998-4.4383469"/>
      </g>
      <g id="club-41">
        <path d="m132.2075195,211.8378153c0-4.342392-3.6226807-7.8690796-8.1090088-7.8690796s-8.1090088,3.5266876-8.1090088,7.8690796,3.6226807,7.8690796,8.1090088,7.8690796,8.1090088-3.5266876,8.1090088-7.8690796Z"/>
        <path d="m142.6676025,196.9393473c0-4.342392-3.6226807-7.8690796-8.1090088-7.8690796s-8.1090088,3.5266876-8.1090088,7.8690796,3.6226807,7.8690796,8.1090088,7.8690796,8.1090088-3.5266876,8.1090088-7.8690796Z"/>
        <path d="m121.8913574,196.8913736c0-1.5834045-.4798584-3.0708618-1.319458-4.3183899-1.4394531-2.1352081-3.9584961-3.5506744-6.7894287-3.5506744-4.4863281,0-8.1090088,3.5266876-8.1090088,7.8690796s3.6226807,7.8690796,8.1090088,7.8690796,8.1090088-3.5266876,8.1090088-7.8690796l-.0001221-.0000153Z"/>
        <path d="m133.6229248,181.6090555c-4.0064697,0-6.1176758,3.2627869-7.2213135,6.5255737s-1.199585,6.5255737-1.199585,6.5255737h-2.0632324s-.3839111-13.0271606-8.3968506-13.0511475h18.8809814Z"/>
        <path d="m118.6044922,206.0559549c4.5583496-4.5583038,4.5583496-11.3957672,4.5583496-11.3957672l2.0391846-.0239868s0,6.9813995,4.4383545,11.419754"/>
        <path d="m119.5162354,191.4214029c4.5583496,4.5583038,11.395752,4.5583038,11.395752,4.5583038v2.0392456s-6.9814453,0-11.4197998,4.4383545"/>
        <path d="m128.6568604,191.3974161c-4.5583496,4.5583038-11.395752,4.5583038-11.395752,4.5583038v2.0392456s6.9814453,0,11.4197998,4.4383545"/>
      </g>
      <g id="club-42">
        <path d="m76.2196045,80.2026072c0,4.3423843,3.6226807,7.869072,8.1090088,7.869072s8.1090088-3.5266876,8.1090088-7.869072-3.6226807-7.869072-8.1090088-7.869072-8.1090088,3.5266876-8.1090088,7.869072Z"/>
        <path d="m65.7595215,95.1010675c0,4.3423843,3.6226807,7.869072,8.1090088,7.869072s8.1090088-3.5266876,8.1090088-7.869072-3.6226807-7.869072-8.1090088-7.869072-8.1090088,3.5266876-8.1090088,7.869072Z"/>
        <path d="m86.5357666,95.1490488c0,1.5834122.4798584,3.0708542,1.319458,4.3183899,1.4394531,2.1352081,3.9584961,3.5506821,6.7894287,3.5506821,4.4863281,0,8.1090088-3.5266876,8.1090088-7.869072s-3.6226807-7.869072-8.1090088-7.869072-8.1090088,3.5266876-8.1090088,7.869072h.0001221Z"/>
        <path d="m74.8040771,110.4313669c4.0064697,0,6.1176758-3.2627869,7.2213135-6.5255737s1.199585-6.5255737,1.199585-6.5255737h2.0632324s.3839111,13.027153,8.3968506,13.0511475h-18.8809814Z"/>
        <path d="m89.8225098,85.9844599c-4.5583496,4.5583038-4.5583496,11.3957596-4.5583496,11.3957596l-2.0391846.0239944s0-6.9814072-4.4383545-11.419754"/>
        <path d="m88.9108887,100.6190195c-4.5583496-4.5583038-11.395752-4.5583038-11.395752-4.5583038v-2.0392456s6.9814453,0,11.4197998-4.4383469"/>
        <path d="m79.7702637,100.6430063c4.5583496-4.5583038,11.395752-4.5583038,11.395752-4.5583038v-2.0392456s-6.9814453,0-11.4197998-4.4383469"/>
      </g>
    </g>
  </g>
</svg>