<?xml version="1.0" encoding="UTF-8"?>
<svg id="_图层_2" data-name="图层 2" xmlns="http://www.w3.org/2000/svg" viewBox="0 0 167.5130615 243.0499268">
  <defs>
    <style>
      .cls-1 {
        fill: #111;
      }

      .cls-2 {
        fill: #fff;
        stroke: #000;
        stroke-miterlimit: 3.998513;
      }
    </style>
  </defs>
  <g id="_图层_1-2" data-name=" 图层 1">
    <g id="_7_spade" data-name=" 7 spade">
      <g id="base-46">
        <path class="cls-2" d="m.500061,235.6824951c0,3.7785645,3.0888672,6.8674316,6.8674316,6.8674316h152.788147c3.7685547,0,6.8574219-3.0888672,6.8574219-6.8674316V7.3674316c0-3.7785645-3.0888672-6.8674316-6.8574219-6.8674316H7.3674316C3.5888672.5.5,3.5888672.5,7.3674316v228.3150635h.000061Z"/>
      </g>
      <g id="n_7-7" data-name="n 7-7">
        <path class="cls-1" d="m7.6154785,14.8900146l-2.1728516-.1777344V6.6116943h16.7744141v2.0634766l-9.7285156,27.9638672h-3.3808594l9.5957031-26.0322266-.1132812-.2226562h-9.9736328l-1.0009766,4.5058594Z"/>
      </g>
      <g id="n_7-8" data-name="n 7-8">
        <path class="cls-1" d="m160.8908691,227.1624756l2.1728516.1777344v8.1005859h-16.7744141v-2.0634766l9.7285156-27.9638672h3.3808594l-9.5957031,26.0322266.1132812.2226562h9.9736328l1.0009766-4.5058594Z"/>
      </g>
      <g id="spade-34">
        <path d="m10.2263794,58.5613403c1.6693726,0,2.5490723-1.7793579,3.0089111-3.5586548.4598389-1.7793579.4998169-3.5586548.4998169-3.5586548l.8496704-.0100098s.1599121,7.1273804,3.4987183,7.1273804h-7.8570557l-.000061-.000061Z"/>
        <path d="m7.3974609,51.434021c.0100098-3.468689,5.2180786-5.987793,6.7474976-8.7267456,1.5294189,2.7489624,6.7374878,5.2680664,6.7474976,8.7267456,0,1.6394043-1.5093994,2.9688721-3.3787231,2.9688721-1.859314,0-3.3687744-1.3295288-3.3687744-2.9688721,0,1.6394043-1.5094604,2.9688721-3.3787231,2.9688721s-3.3687744-1.3295288-3.3687744-2.9688721Z"/>
      </g>
      <g id="spade-35">
        <path d="m158.2813721,183.4919434c-1.6694336,0-2.5490723,1.7793579-3.0089111,3.5586548-.4598389,1.7793579-.4997559,3.5586548-.4997559,3.5586548l-.8497314.0100098s-.1599121-7.1273193-3.4986572-7.1273193h7.8570557Z"/>
        <path d="m161.1103516,190.6192627c-.0100098,3.468689-5.2180176,5.987793-6.7474365,8.7267456-1.5294189-2.7489624-6.7375488-5.2680664-6.7474365-8.7267456,0-1.6394043,1.5093994-2.9688721,3.3787842-2.9688721,1.8592529,0,3.3687744,1.3295288,3.3687744,2.9688721,0-1.6394043,1.5093994-2.9688721,3.3787842-2.9688721s3.3687744,1.3295288,3.3687744,2.9688721h-.0002441Z"/>
      </g>
      <g id="spade-36">
        <path d="m34.9381104,56.270813c4.0064697,0,6.1176758-4.2703857,7.2213135-8.5408325,1.1036377-4.2703857,1.199585-8.5408325,1.199585-8.5408325l2.0391846-.0239868s.3839111,17.1056519,8.3968506,17.1056519h-18.8569336Z"/>
        <path d="m28.1485596,39.1651611c.0240479-8.3248901,12.5233154-14.3706665,16.1939697-20.9442139,3.6706543,6.5975342,16.1700439,12.6433105,16.1939697,20.9442139,0,3.9345093-3.6226807,7.1253662-8.1090088,7.1253662-4.4622803,0-8.0849609-3.1907959-8.0849609-7.1253662,0,3.9345093-3.6226807,7.1253662-8.1090088,7.1253662s-8.0849609-3.1907959-8.0849609-7.1253662Z"/>
      </g>
      <g id="spade-37">
        <path d="m34.9381104,133.1838989c4.0064697,0,6.1176758-4.2703857,7.2213135-8.5408325,1.1036377-4.2703857,1.199585-8.5408325,1.199585-8.5408325l2.0391846-.0239868s.3839111,17.1056519,8.3968506,17.1056519h-18.8569336Z"/>
        <path d="m28.1485596,116.0782471c.0240479-8.3248901,12.5233154-14.3706665,16.1939697-20.9442139,3.6706543,6.5975342,16.1700439,12.6433105,16.1939697,20.9442139,0,3.9345093-3.6226807,7.1253662-8.1090088,7.1253662-4.4622803,0-8.0849609-3.1907959-8.0849609-7.1253662,0,3.9345093-3.6226807,7.1253662-8.1090088,7.1253662s-8.0849609-3.1907959-8.0849609-7.1253662Z"/>
      </g>
      <g id="spade-38">
        <path d="m53.7470703,181.6337891c-4.0064697,0-6.1176758,4.2703857-7.2213135,8.5408325-1.1036377,4.2703857-1.199585,8.5408325-1.199585,8.5408325l-2.0391846.0239868s-.3839111-17.1056519-8.3968506-17.1056519h18.8569336Z"/>
        <path d="m60.5366211,198.7394409c-.0240479,8.3248901-12.5233154,14.3706665-16.1939697,20.9442139-3.6706543-6.5975342-16.1700439-12.6433105-16.1939697-20.9442139,0-3.9345093,3.6226807-7.1253662,8.1090088-7.1253662,4.4622803,0,8.0849609,3.1907959,8.0849609,7.1253662,0-3.9345093,3.6226807-7.1253662,8.1090088-7.1253662s8.0849609,3.1907959,8.0849609,7.1253662Z"/>
      </g>
      <g id="spade-39">
        <path d="m114.7658691,56.270813c4.0064697,0,6.1176758-4.2703857,7.2213135-8.5408325,1.1036377-4.2703857,1.199585-8.5408325,1.199585-8.5408325l2.0391846-.0239868s.3839111,17.1056519,8.3968506,17.1056519h-18.8569336Z"/>
        <path d="m107.9764404,39.1651611c.0240479-8.3248901,12.5233154-14.3706665,16.1939697-20.9442139,3.6706543,6.5975342,16.1700439,12.6433105,16.1939697,20.9442139,0,3.9345093-3.6226807,7.1253662-8.1090088,7.1253662-4.4622803,0-8.0849609-3.1907959-8.0849609-7.1253662,0,3.9345093-3.6226807,7.1253662-8.1090088,7.1253662s-8.0849609-3.1907959-8.0849609-7.1253662Z"/>
      </g>
      <g id="spade-40">
        <path d="m114.7658691,133.1838989c4.0064697,0,6.1176758-4.2703857,7.2213135-8.5408325,1.1036377-4.2703857,1.199585-8.5408325,1.199585-8.5408325l2.0391846-.0239868s.3839111,17.1056519,8.3968506,17.1056519h-18.8569336Z"/>
        <path d="m107.9764404,116.0782471c.0240479-8.3248901,12.5233154-14.3706665,16.1939697-20.9442139,3.6706543,6.5975342,16.1700439,12.6433105,16.1939697,20.9442139,0,3.9345093-3.6226807,7.1253662-8.1090088,7.1253662-4.4622803,0-8.0849609-3.1907959-8.0849609-7.1253662,0,3.9345093-3.6226807,7.1253662-8.1090088,7.1253662s-8.0849609-3.1907959-8.0849609-7.1253662Z"/>
      </g>
      <g id="spade-41">
        <path d="m133.5749512,181.6337891c-4.0064697,0-6.1176758,4.2703857-7.2213135,8.5408325-1.1036377,4.2703857-1.199585,8.5408325-1.199585,8.5408325l-2.0391846.0239868s-.3839111-17.1056519-8.3968506-17.1056519h18.8569336Z"/>
        <path d="m140.364502,198.7394409c-.0240479,8.3248901-12.5233154,14.3706665-16.1939697,20.9442139-3.6706543-6.5975342-16.1700439-12.6433105-16.1939697-20.9442139,0-3.9345093,3.6226807-7.1253662,8.1090088-7.1253662,4.4622803,0,8.0849609,3.1907959,8.0849609,7.1253662,0-3.9345093,3.6226807-7.1253662,8.1090088-7.1253662s8.0849609,3.1907959,8.0849609,7.1253662Z"/>
      </g>
      <g id="spade-42">
        <path d="m74.8520508,110.4066772c4.0064697,0,6.1176758-4.2703857,7.2213135-8.5408325,1.1036377-4.2703857,1.199585-8.5408325,1.199585-8.5408325l2.0391846-.0239868s.3839111,17.1056519,8.3968506,17.1056519h-18.8569336Z"/>
        <path d="m68.0626221,93.3010254c.0240479-8.3248901,12.5233154-14.3706665,16.1939697-20.9442139,3.6706543,6.5975342,16.1700439,12.6433105,16.1939697,20.9442139,0,3.9345093-3.6226807,7.1253662-8.1090088,7.1253662-4.4622803,0-8.0849609-3.1907959-8.0849609-7.1253662,0,3.9345093-3.6226807,7.1253662-8.1090088,7.1253662s-8.0849609-3.1907959-8.0849609-7.1253662Z"/>
      </g>
    </g>
  </g>
</svg>